# crate.obj
#

mtllib crate.mtl

v  -0.5  -0.5  -0.5
v  -0.5  -0.5  0.5
v  -0.5  0.5  -0.5
v  -0.5  0.5  0.5
v  0.5  -0.5  -0.5
v  0.5  -0.5  0.5
v  0.5  0.5  -0.5
v  0.5  0.5  0.5

vn  0.0  0.0  1.0
vn  0.0  0.0 -1.0
vn  0.0  1.0  0.0
vn  0.0 -1.0  0.0
vn  1.0  0.0  0.0
vn -1.0  0.0  0.0

vt 0.0 0.0
vt 1.0 0.0
vt 1.0 1.0
vt 0.0 1.0

usemtl crate
f  1/2/2  7/4/2  5/1/2
f  1/2/2  3/3/2  7/4/2

f  1/2/6  4/4/6  3/1/6
f  1/2/6  2/3/6  4/4/6

f  3/2/3  8/4/3  7/1/3
f  3/2/3  4/3/3  8/4/3

f  5/1/5  7/2/5  8/3/5
f  5/1/5  8/3/5  6/4/5

f  1/1/4  5/2/4  6/3/4
f  1/1/4  6/3/4  2/4/4

f  2/1/1  6/2/1  8/3/1
f  2/1/1  8/3/1  4/4/1
